<?xml version="1.0" encoding="utf-8"?>
<svg version="1.2" xmlns:xlink="http://www.w3.org/1999/xlink" width="100%" viewBox="0 0 400 400" baseProfile="tiny-ps" xmlns="http://www.w3.org/2000/svg">
  <title>talaealrrakb</title>
<path fill="#FFFFFF" stroke="none" d=" M401.000000,156.000000   C401.000000,238.000000 401.000000,319.500000 401.000000,401.000000   C267.666656,401.000000 134.333328,401.000000 1.000000,401.000000   C1.000000,267.666656 1.000000,134.333328 1.000000,1.000000   C134.333328,1.000000 267.666656,1.000000 401.000000,1.000000   C401.000000,52.500000 401.000000,104.000000 401.000000,156.000000  M244.528229,281.653717   C244.870148,280.811371 245.212067,279.969055 246.047424,278.562622   C248.348618,273.980469 250.649811,269.398315 253.529037,264.760193   C253.700546,264.188263 253.872055,263.616302 254.485382,262.344604   C254.671631,261.260986 254.857864,260.177368 255.597885,258.883209   C255.769791,258.268341 255.941696,257.653503 256.539459,256.310944   C256.718353,254.918869 256.897247,253.526779 257.702057,251.830078   C257.903595,250.540024 258.105133,249.249985 258.679565,247.236435   C258.834900,245.899994 258.990234,244.563553 259.796112,242.802872   C262.068756,227.993820 260.959198,213.519318 255.917221,199.329803   C250.332977,183.614151 240.456802,170.556763 230.575073,157.470886   C229.752563,156.381668 229.203568,155.085907 228.280746,153.448242   C237.318527,150.486588 245.843948,147.923904 251.535034,140.534958   C253.838943,137.543686 256.521515,137.847595 259.944611,138.416748   C264.864471,139.234756 269.973724,138.913589 275.907501,139.154358   C278.936737,139.162262 281.965942,139.170181 285.486603,139.746201   C287.255829,139.623230 289.025055,139.500244 290.794312,139.377258   C291.024414,138.771423 291.254517,138.165588 291.484619,137.559738   C283.045013,130.767776 274.521088,124.075859 266.237854,117.098236   C264.608246,115.725494 263.530914,113.371567 262.849152,111.260185   C260.781677,104.857567 259.993256,97.829971 256.852661,92.053818   C254.398621,87.540382 249.179489,84.530357 244.688324,80.633408   C244.486130,80.336090 244.283920,80.038780 244.164139,79.027229   C240.976608,76.979713 238.018143,74.349823 234.560211,72.989761   C222.345184,68.185326 210.432419,69.817162 199.425415,76.531578   C189.396454,82.649368 183.056305,91.739426 180.637985,104.321220   C168.077332,91.348335 156.710358,78.496025 147.028091,64.212959   C137.265076,49.810787 131.244797,33.761047 126.981720,16.688257   C121.531731,21.682962 119.451820,27.493053 118.856850,34.619297   C118.792213,35.024555 118.727577,35.429810 118.019493,36.114723   C117.378151,37.417042 116.427032,38.657131 116.150665,40.032776   C115.115852,45.183701 113.966568,50.346939 113.468185,55.563644   C112.022667,70.694351 113.286751,85.635033 119.394554,99.664116   C124.118980,110.515717 129.563339,121.083977 135.227844,131.483963   C138.223969,136.984833 142.373138,141.857666 146.065094,147.642654   C146.156693,148.053604 146.248291,148.464539 146.216492,149.579620   C148.545929,152.326004 150.875381,155.072403 153.365051,158.199249   C153.365051,158.199249 153.481598,158.595276 153.242676,159.262482   C153.807770,159.854904 154.372864,160.447327 155.012085,161.658768   C155.117920,162.059265 155.223740,162.459747 155.278549,163.550842   C157.357162,167.238693 159.271896,171.034348 161.592880,174.562775   C162.557526,176.029221 164.389282,176.925278 166.203735,178.196411   C166.203735,178.196411 166.597443,178.173859 166.520844,178.789017   C166.578415,179.198074 166.635986,179.607117 166.244781,180.440994   C166.809830,181.313477 167.374893,182.185944 168.083710,183.640274   C168.210678,184.018875 168.337646,184.397491 168.275955,185.417725   C168.860107,185.932587 169.444260,186.447449 170.179184,187.391632   C170.179184,187.391632 170.339737,187.817368 170.215363,188.461517   C170.785126,188.998871 171.354889,189.536240 172.251007,190.716843   C173.280075,192.941422 174.150238,195.256882 175.362534,197.376678   C189.008545,221.238113 193.124725,246.683273 188.641937,273.742981   C187.100357,283.048492 186.039154,292.474365 185.451309,301.888519   C184.241577,321.262512 187.648392,340.227570 191.546814,359.090271   C192.155304,362.034485 193.552399,364.815643 194.584824,367.672211   C195.066284,367.667969 195.547729,367.663696 196.029175,367.659454   C196.918854,365.788147 197.982407,363.977448 198.660583,362.032410   C199.915451,358.433350 200.450638,354.503754 202.156769,351.155853   C208.310928,339.079773 214.531372,327.017120 221.314163,315.289093   C225.673935,307.750702 231.062561,300.807312 236.612671,293.619019   C236.951355,292.745850 237.290039,291.872711 237.824814,290.883850   C237.824814,290.883850 237.903809,290.670288 238.549149,290.672882   C238.909088,289.781189 239.269028,288.889526 239.823975,287.889465   C239.823975,287.889465 239.905151,287.681671 240.550369,287.664917   C240.936646,286.771912 241.322922,285.878937 241.870422,284.912354   C241.870422,284.912354 241.916382,284.741211 242.557312,284.691010   C242.903229,283.796112 243.249161,282.901184 243.805099,281.880737   C243.805099,281.880737 243.902588,281.656342 244.528229,281.653717  z" />
<path fill="#37264F" stroke="none" d=" M244.081726,79.741463   C244.283920,80.038780 244.486130,80.336090 244.936874,81.086258   C248.154785,85.312347 251.124146,89.085594 253.932739,93.172699   C252.231323,94.639809 250.690674,95.793053 249.077927,97.000259   C246.879059,91.697205 242.964218,93.011238 239.806900,94.309410   C233.775955,96.789101 227.938736,96.231812 221.833710,94.925262   C218.693100,94.253143 215.264191,94.110512 212.093903,94.585396   C207.287918,95.305298 202.593765,96.771935 197.867371,97.491547   C197.471451,91.947708 197.060287,86.833664 196.681396,81.714340   C196.713699,81.709068 196.729919,81.645660 197.094513,81.730789   C201.661652,79.686104 205.870514,77.568573 210.063126,75.419350   C211.408585,74.729637 212.711121,73.956215 214.483490,73.127594   C218.617722,73.071815 222.301727,73.109535 226.072189,73.497879   C229.960785,75.297676 233.750183,76.781731 237.570724,78.180695   C239.366882,78.838387 241.222977,79.332352 243.319611,79.927170   C243.752121,79.883034 243.916916,79.812248 244.081726,79.741463  z" />
<path fill="#A79CB2" stroke="none" d=" M255.044098,259.093750   C254.857864,260.177368 254.671631,261.260986 254.081329,262.788635   C253.435181,263.760498 253.193085,264.288330 252.951004,264.816162   C250.649811,269.398315 248.348618,273.980469 245.596161,278.985901   C244.730774,280.158234 244.316666,280.907288 243.902573,281.656342   C243.902588,281.656342 243.805099,281.880737 243.494507,282.118469   C242.761398,283.151215 242.338882,283.946198 241.916382,284.741211   C241.916382,284.741211 241.870422,284.912354 241.566620,285.113953   C240.810257,286.104279 240.357697,286.892975 239.905151,287.681671   C239.905151,287.681671 239.823975,287.889465 239.518280,288.114075   C238.776321,289.115906 238.340057,289.893097 237.903809,290.670288   C237.903809,290.670288 237.824814,290.883850 237.523178,291.108948   C236.811035,292.088470 236.400528,292.842865 235.990005,293.597260   C231.062561,300.807312 225.673935,307.750702 221.314163,315.289093   C214.531372,327.017120 208.310928,339.079773 202.156769,351.155853   C200.450638,354.503754 199.915451,358.433350 198.660583,362.032410   C197.982407,363.977448 196.918854,365.788147 196.029175,367.659454   C195.547729,367.663696 195.066284,367.667969 194.584824,367.672211   C193.552399,364.815643 192.155304,362.034485 191.546814,359.090271   C187.648392,340.227570 184.241577,321.262512 185.451309,301.888519   C186.039154,292.474365 187.100357,283.048492 188.641937,273.742981   C193.124725,246.683273 189.008545,221.238113 175.362534,197.376678   C174.150238,195.256882 173.280075,192.941422 172.088181,190.084869   C171.396805,188.907730 170.868271,188.362549 170.339737,187.817368   C170.339737,187.817368 170.179184,187.391632 170.081421,186.880447   C169.477310,185.838211 168.970963,185.307144 168.464615,184.776093   C168.337646,184.397491 168.210678,184.018875 168.030151,183.004013   C167.979630,181.907623 167.982697,181.447510 168.229797,181.011810   C168.473862,181.036240 168.964096,181.054382 169.122955,181.286743   C169.705017,181.878891 170.128204,182.238663 170.521713,182.900345   C171.165665,184.208969 171.839294,185.215652 172.533417,186.558273   C172.921097,187.436279 173.288300,187.978333 173.651306,188.830261   C174.533875,190.486938 175.420593,191.833786 176.394196,193.545502   C183.309097,208.728378 190.888046,223.290955 192.102661,240.338776   C192.362030,241.453186 192.676346,242.228424 193.023743,243.377655   C193.110397,244.498993 193.163940,245.246338 193.157562,246.444534   C193.135696,249.925568 193.173752,252.955734 193.130524,256.392944   C192.696915,260.203339 192.344589,263.606659 191.902878,267.422607   C191.805313,269.246490 191.797134,270.657806 191.741531,272.412476   C191.655182,273.447052 191.616257,274.138275 191.297028,275.084839   C190.268280,280.542664 189.267929,285.724915 188.849396,290.953796   C188.501709,295.297424 188.838440,299.695831 188.890869,304.488251   C188.699356,310.926239 188.488953,316.945953 188.203110,323.381348   C189.032455,328.567657 189.937256,333.338226 190.835632,338.420654   C190.853088,339.147491 190.876984,339.562531 190.884949,340.409180   C192.072769,347.677307 193.276489,354.513794 194.480225,361.350250   C195.013351,361.353943 195.546478,361.357635 196.079605,361.361328   C200.821411,343.060394 210.294449,327.159668 220.665710,311.708740   C223.238449,307.875916 225.701981,303.969788 228.506897,299.923279   C230.199997,297.717773 231.735489,295.764771 232.981506,293.641815   C239.738800,282.128754 246.492386,270.612213 253.083694,259.003998   C254.588776,256.353333 255.448593,253.336273 256.729492,250.897736   C256.927734,251.583313 257.001923,251.859009 257.076141,252.134705   C256.897247,253.526779 256.718353,254.918869 256.117004,256.780151   C255.477753,257.864166 255.260941,258.478943 255.044098,259.093750  z" />
<path fill="#A2A6B9" stroke="none" d=" M254.093491,92.858841   C251.124146,89.085594 248.154785,85.312347 245.187210,81.195702   C249.179489,84.530357 254.398621,87.540382 256.852661,92.053818   C259.993256,97.829971 260.781677,104.857567 262.849152,111.260185   C263.530914,113.371567 264.608246,115.725494 266.237854,117.098236   C274.521088,124.075859 283.045013,130.767776 291.484619,137.559738   C291.254517,138.165588 291.024414,138.771423 290.794312,139.377258   C289.025055,139.500244 287.255829,139.623230 285.274902,139.143402   C287.831299,136.930450 285.489807,135.929321 284.500916,135.104889   C278.795258,130.348145 273.012421,125.683632 267.234558,121.014084   C264.944733,119.163498 263.837677,120.082405 263.034973,122.636459   C262.053589,125.758873 260.945068,128.887482 259.463165,131.795074   C257.482849,135.680450 257.848114,136.471100 262.125793,136.988861   C266.439056,137.510941 270.711700,138.368256 275.002136,139.078705   C269.973724,138.913589 264.864471,139.234756 259.944611,138.416748   C256.521515,137.847595 253.838943,137.543686 251.535034,140.534958   C245.843948,147.923904 237.318527,150.486588 228.280746,153.448242   C229.203568,155.085907 229.752563,156.381668 230.575073,157.470886   C240.456802,170.556763 250.332977,183.614151 255.917221,199.329803   C260.959198,213.519318 262.068756,227.993820 259.321350,242.551361   C258.741455,241.993591 258.636292,241.687347 258.547668,240.982758   C258.427582,238.364761 258.291016,236.145142 258.327911,233.514023   C258.381287,230.054810 258.261200,227.007080 258.185455,223.628830   C258.182953,222.857620 258.136047,222.416931 258.163086,221.533096   C257.615326,213.182449 256.864380,205.308472 252.359344,198.100739   C252.185898,197.205994 252.009171,196.619232 251.868347,195.667664   C250.421097,192.654861 248.937973,190.006851 247.464661,187.113571   C247.406662,186.541306 247.267654,186.248047 247.042786,185.659592   C246.478836,184.687149 245.929535,184.043655 245.424866,183.262451   C245.469482,183.124741 245.304932,182.886536 245.265244,182.531982   C243.196777,179.369125 241.167999,176.560822 239.103790,173.450882   C238.448639,172.383698 237.828903,171.618164 237.140320,170.513596   C234.087006,166.412247 231.102539,162.649918 228.087769,158.887421   C228.057480,158.887253 228.095383,158.934525 228.065338,158.606354   C227.418655,157.691956 226.802017,157.105743 226.151978,156.194122   C224.508331,153.852539 222.898071,151.836395 221.136261,149.517563   C214.072128,142.104767 207.159546,134.994675 200.179184,127.582840   C199.699203,126.869324 199.287003,126.457535 198.793091,125.740677   C197.767014,124.113411 196.822662,122.791214 195.938828,120.994171   C196.092422,119.887161 196.185471,119.255005 196.552429,118.819160   C202.276657,124.307159 207.726959,129.598846 213.161407,135.243240   C216.748871,139.059479 220.352173,142.523026 224.093811,146.264740   C225.073792,147.097733 225.915421,147.652542 226.878815,148.557693   C228.997086,148.940765 230.993607,148.973480 233.344330,148.966980   C235.465561,148.262970 237.232605,147.598190 239.349426,146.929733   C242.545227,144.341019 245.391266,141.755981 248.509491,138.984940   C251.166046,135.863602 253.550430,132.928253 256.125183,129.686142   C257.254150,126.622604 258.192749,123.865837 259.392700,120.901001   C259.692505,119.815666 259.730927,118.938393 259.837341,117.710861   C259.867493,116.888176 259.829681,116.415749 259.852234,115.512711   C259.765137,111.976974 259.617676,108.871864 259.363037,105.395020   C257.535034,100.968475 255.814270,96.913658 254.093491,92.858841  z" />
<path fill="#262B56" stroke="none" d=" M170.551392,182.598419   C170.128204,182.238663 169.705017,181.878891 169.130066,180.901001   C168.184692,179.579895 167.391068,178.876877 166.597443,178.173859   C166.597443,178.173859 166.203735,178.196411 166.092590,177.813873   C165.638855,176.620712 165.296249,175.810089 165.321747,174.974579   C168.124344,173.959808 170.558807,172.969925 173.181854,172.321930   C176.199158,172.959808 179.179962,173.969910 181.825684,173.406509   C187.754959,172.143936 193.424774,169.381439 199.378952,168.610992   C203.738770,168.046829 205.946320,165.850540 208.102478,162.798355   C209.508026,160.808716 209.373123,159.142319 206.633408,159.088593   C201.961182,158.996979 201.427155,155.588776 201.105850,152.328949   C200.902924,150.270172 201.670288,148.115784 202.372650,146.007599   C204.799881,148.054291 207.136856,149.891418 208.836075,152.198303   C210.575272,154.559448 210.897324,158.204086 215.276688,158.240051   C215.656326,158.952911 215.935944,159.464935 215.840866,159.893951   C214.512512,165.888702 212.653076,171.531281 214.718750,178.096069   C216.676849,184.319107 210.044556,188.663681 203.457596,186.748123   C200.404068,185.860107 196.948700,186.318329 193.673721,186.247421   C192.573898,186.223618 191.417465,186.716721 190.375031,186.515961   C186.563660,185.781921 182.789429,184.854935 178.769775,183.727844   C177.358810,183.302521 176.179260,183.149948 174.801041,182.723083   C173.252029,182.498672 171.901718,182.548538 170.551392,182.598419  z" />
<path fill="#C4CED8" stroke="none" d=" M244.122925,79.384346   C243.916916,79.812248 243.752121,79.883034 243.168549,79.619156   C237.161758,77.238754 231.573746,75.193008 225.985748,73.147263   C222.301727,73.109535 218.617722,73.071815 214.105469,73.031265   C207.155243,74.736748 200.932953,76.252457 196.729919,81.645660   C196.729919,81.645660 196.713699,81.709068 196.355194,81.765839   C192.693436,86.212875 189.390167,90.603142 185.929321,95.322205   C185.376297,97.035278 184.980835,98.419579 184.369629,100.108063   C185.210220,103.100899 186.266571,105.789543 187.208054,108.875443   C186.337555,109.925041 185.581894,110.577393 184.567474,111.035522   C182.868210,109.922905 181.427689,109.004524 179.867371,107.764221   C178.666275,105.983612 177.692337,104.428658 176.485306,103.082726   C170.980026,96.943886 165.353714,90.913063 159.880432,84.746201   C155.854630,80.210228 151.998230,75.523903 148.007095,70.576462   C146.314529,68.491959 144.681229,66.735573 143.005310,64.633255   C141.971527,62.536045 140.980331,60.784767 139.959290,58.690781   C138.963028,56.889748 137.996613,55.431427 137.002975,53.604340   C134.291229,46.811218 131.606735,40.386856 128.957886,33.640823   C128.980362,32.888905 128.967178,32.458656 129.000275,31.686737   C128.718369,30.543921 128.390167,29.742773 128.015442,28.573631   C127.393738,26.246332 126.818565,24.287027 126.243393,22.327723   C125.675110,22.216402 125.106827,22.105082 124.538544,21.993759   C123.359657,25.316505 122.180779,28.639250 120.732544,32.097916   C119.960472,32.826450 119.457756,33.419067 118.955048,34.011681   C119.451820,27.493053 121.531731,21.682962 126.981720,16.688257   C131.244797,33.761047 137.265076,49.810787 147.028091,64.212959   C156.710358,78.496025 168.077332,91.348335 180.637985,104.321220   C183.056305,91.739426 189.396454,82.649368 199.425415,76.531578   C210.432419,69.817162 222.345184,68.185326 234.560211,72.989761   C238.018143,74.349823 240.976608,76.979713 244.122925,79.384346  z" />
<path fill="#5E93BA" stroke="none" d=" M153.481598,158.595276   C153.481598,158.595276 153.365051,158.199249 153.304871,157.712952   C153.221115,156.829636 153.197540,156.432617 153.374817,155.834991   C153.366486,154.741608 153.157318,153.848785 153.343781,152.981445   C155.295410,153.555511 156.826141,154.440750 158.414368,154.559952   C160.068924,154.684113 162.085266,154.541840 163.405472,153.686111   C166.931335,151.400726 169.882980,147.143082 173.583099,146.451050   C180.207031,145.212158 180.103851,140.017990 180.737427,136.110550   C181.605804,130.755066 184.103256,128.534363 188.996857,128.375732   C188.673492,129.675415 188.277374,130.574219 188.029785,131.512253   C187.287216,134.325592 186.602646,137.154251 185.883698,140.295410   C185.574188,141.405685 185.276459,142.197479 184.631897,143.043549   C183.514648,144.720978 182.744232,146.344131 181.984406,147.985519   C181.994980,148.003754 181.961578,147.975571 181.623505,148.029343   C179.895370,150.438889 178.505310,152.794662 177.089783,155.361176   C177.064316,155.571915 176.953110,155.981659 176.608017,156.013611   C175.696472,156.354568 175.002579,156.544434 174.584305,156.991943   C171.890884,159.873535 170.053711,163.733627 164.976807,163.511215   C164.019577,163.469299 162.926468,166.529266 161.627289,168.240036   C160.138779,166.560440 158.919037,164.798721 157.738373,162.728241   C157.196686,161.953735 156.615891,161.487976 155.975372,160.697968   C155.104279,159.780899 154.292938,159.188080 153.481598,158.595276  z" />
<path fill="#698EA2" stroke="none" d=" M118.905945,34.315491   C119.457756,33.419067 119.960472,32.826450 121.006195,32.333588   C122.116745,35.172344 122.866997,37.359444 126.145630,34.619858   C126.798447,34.074368 127.982910,34.165127 128.922226,33.962494   C131.606735,40.386856 134.291229,46.811218 136.755630,53.885910   C131.599960,56.185009 126.664406,57.833771 121.110794,59.689003   C120.469070,59.426460 118.767990,58.730511 116.991844,57.728172   C116.834602,57.228622 116.752419,57.035461 116.714386,56.392891   C117.393333,49.240681 118.028137,42.537876 118.662941,35.835068   C118.727577,35.429810 118.792213,35.024555 118.905945,34.315491  z" />
<path fill="#44355B" stroke="none" d=" M275.454834,139.116531   C270.711700,138.368256 266.439056,137.510941 262.125793,136.988861   C257.848114,136.471100 257.482849,135.680450 259.463165,131.795074   C260.945068,128.887482 262.053589,125.758873 263.034973,122.636459   C263.837677,120.082405 264.944733,119.163498 267.234558,121.014084   C273.012421,125.683632 278.795258,130.348145 284.500916,135.104889   C285.489807,135.929321 287.831299,136.930450 285.029205,138.859344   C281.965942,139.170181 278.936737,139.162262 275.454834,139.116531  z" />
<path fill="#C4CED8" stroke="none" d=" M118.341217,35.974895   C118.028137,42.537876 117.393333,49.240681 116.363564,56.549107   C115.842163,63.499924 115.554932,69.848778 115.698959,76.187828   C115.736359,77.833961 117.121826,79.449471 117.909988,81.468018   C117.939384,82.903282 117.946884,83.949562 117.693008,85.229218   C117.601166,86.723679 117.515602,88.088615 117.980103,89.229645   C122.186882,99.563324 126.125175,110.031334 130.912033,120.093727   C133.465195,125.460670 137.533127,130.106995 140.942764,135.434738   C142.277695,137.549423 143.587234,139.307938 144.919159,141.430161   C145.341843,143.179688 145.742126,144.565536 146.110718,146.217499   C146.053268,146.660416 146.027512,146.837234 146.001740,147.014038   C142.373138,141.857666 138.223969,136.984833 135.227844,131.483963   C129.563339,121.083977 124.118980,110.515717 119.394554,99.664116   C113.286751,85.635033 112.022667,70.694351 113.468185,55.563644   C113.966568,50.346939 115.115852,45.183701 116.150665,40.032776   C116.427032,38.657131 117.378151,37.417042 118.341217,35.974895  z" />
<path fill="#C4CED8" stroke="none" d=" M157.699295,163.037018   C158.919037,164.798721 160.138779,166.560440 161.645691,168.580658   C162.544724,169.901215 163.156601,170.963257 163.795746,172.367371   C164.199890,173.472794 164.576767,174.236130 164.953644,174.999466   C165.296249,175.810089 165.638855,176.620712 165.904083,177.756027   C164.389282,176.925278 162.557526,176.029221 161.592880,174.562775   C159.271896,171.034348 157.357162,167.238693 155.597260,163.236664   C156.510406,162.960663 157.104858,162.998840 157.699295,163.037018  z" />
<path fill="#95C9E3" stroke="none" d=" M146.033417,147.328339   C146.027512,146.837234 146.053268,146.660416 146.391510,146.368729   C148.116898,147.517212 149.529800,148.780579 151.072403,150.303467   C151.767685,151.072281 152.333267,151.581619 152.903290,152.307648   C152.907745,152.524368 152.948135,152.955978 152.948135,152.955978   C153.157318,153.848785 153.366486,154.741608 153.050369,155.693512   C150.463348,153.460251 148.401627,151.167862 146.339905,148.875488   C146.248291,148.464539 146.156693,148.053604 146.033417,147.328339  z" />
<path fill="#C4CED8" stroke="none" d=" M146.278198,149.227554   C148.401627,151.167862 150.463348,153.460251 152.849518,155.894104   C153.197540,156.432617 153.221115,156.829636 153.224762,157.522736   C150.875381,155.072403 148.545929,152.326004 146.278198,149.227554  z" />
<path fill="#A79CB2" stroke="none" d=" M258.531158,241.381104   C258.636292,241.687347 258.741455,241.993591 258.996094,242.763474   C258.990234,244.563553 258.834900,245.899994 258.234192,247.617035   C257.431946,248.018631 257.075104,248.039642 256.560486,247.844788   C256.309692,247.099274 256.216644,246.569626 256.187988,245.710251   C257.011932,244.047379 257.771545,242.714233 258.531158,241.381104  z" />
<path fill="#A2A6B9" stroke="none" d=" M256.718262,248.060638   C257.075104,248.039642 257.431946,248.018631 258.047729,247.978790   C258.105133,249.249985 257.903595,250.540024 257.389099,251.982391   C257.001923,251.859009 256.927734,251.583313 256.757233,250.600235   C256.680023,249.282120 256.699158,248.671371 256.718262,248.060638  z" />
<path fill="#C4CED8" stroke="none" d=" M153.362137,158.928879   C154.292938,159.188080 155.104279,159.780899 155.700867,160.699493   C155.303391,161.030090 155.120667,161.034912 154.937958,161.039749   C154.372864,160.447327 153.807770,159.854904 153.362137,158.928879  z" />
<path fill="#C4CED8" stroke="none" d=" M167.985748,180.987381   C167.982697,181.447510 167.979630,181.907623 167.958252,182.713089   C167.374893,182.185944 166.809830,181.313477 166.758057,180.269073   C167.509476,180.393890 167.747620,180.690628 167.985748,180.987381  z" />
<path fill="#95C9E3" stroke="none" d=" M154.975021,161.349258   C155.120667,161.034912 155.303391,161.030090 155.760620,161.023743   C156.615891,161.487976 157.196686,161.953735 157.738373,162.728241   C157.104858,162.998840 156.510406,162.960663 155.622772,162.891373   C155.223740,162.459747 155.117920,162.059265 154.975021,161.349258  z" />
<path fill="#263E69" stroke="none" d=" M168.229797,181.011810   C167.747620,180.690628 167.509476,180.393890 166.982452,180.056656   C166.635986,179.607117 166.578415,179.198074 166.559143,178.481445   C167.391068,178.876877 168.184692,179.579895 168.971207,180.668640   C168.964096,181.054382 168.473862,181.036240 168.229797,181.011810  z" />
<path fill="#A2A6B9" stroke="none" d=" M236.301331,293.608154   C236.400528,292.842865 236.811035,292.088470 237.425140,291.166809   C237.290039,291.872711 236.951355,292.745850 236.301331,293.608154  z" />
<path fill="#A2A6B9" stroke="none" d=" M238.226471,290.671570   C238.340057,289.893097 238.776321,289.115906 239.420776,288.168274   C239.269028,288.889526 238.909088,289.781189 238.226471,290.671570  z" />
<path fill="#A2A6B9" stroke="none" d=" M240.227753,287.673279   C240.357697,286.892975 240.810257,286.104279 241.486023,285.150757   C241.322922,285.878937 240.936646,286.771912 240.227753,287.673279  z" />
<path fill="#A2A6B9" stroke="none" d=" M242.236847,284.716125   C242.338882,283.946198 242.761398,283.151215 243.389496,282.181244   C243.249161,282.901184 242.903229,283.796112 242.236847,284.716125  z" />
<path fill="#A2A6B9" stroke="none" d=" M244.215393,281.655029   C244.316666,280.907288 244.730774,280.158234 245.349426,279.267944   C245.212067,279.969055 244.870148,280.811371 244.215393,281.655029  z" />
<path fill="#A2A6B9" stroke="none" d=" M253.240021,264.788177   C253.193085,264.288330 253.435181,263.760498 253.860413,263.138519   C253.872055,263.616302 253.700546,264.188263 253.240021,264.788177  z" />
<path fill="#C4CED8" stroke="none" d=" M170.277557,188.139435   C170.868271,188.362549 171.396805,188.907730 171.925003,189.763245   C171.354889,189.536240 170.785126,188.998871 170.277557,188.139435  z" />
<path fill="#C4CED8" stroke="none" d=" M168.370285,185.096909   C168.970963,185.307144 169.477310,185.838211 170.006027,186.665802   C169.444260,186.447449 168.860107,185.932587 168.370285,185.096909  z" />
<path fill="#A2A6B9" stroke="none" d=" M255.320999,258.988464   C255.260941,258.478943 255.477753,257.864166 255.904083,257.143982   C255.941696,257.653503 255.769791,258.268341 255.320999,258.988464  z" />
<path fill="#302E58" stroke="none" d=" M253.932739,93.172699   C255.814270,96.913658 257.535034,100.968475 259.036194,105.567963   C255.893158,109.618622 254.226181,105.840263 252.359024,104.781998   C247.674789,102.127068 242.799820,104.331268 241.704529,109.821030   C241.255356,109.930252 241.081161,109.994659 240.602554,109.922516   C238.877823,108.756119 237.457489,107.726265 235.961273,106.358910   C234.246307,106.263176 232.607208,106.504944 230.667526,106.895767   C228.932480,108.046463 227.498032,109.048103 225.720856,110.024094   C224.920410,110.020370 224.462708,110.042313 223.964783,109.695198   C222.455246,104.999489 218.204941,104.875183 215.259125,105.264374   C208.638229,106.139107 202.861038,104.173615 196.972076,101.575363   C196.939194,100.060371 196.904755,98.956169 197.116180,97.863518   C197.362045,97.875069 197.852112,97.921326 197.852112,97.921326   C202.593765,96.771935 207.287918,95.305298 212.093903,94.585396   C215.264191,94.110512 218.693100,94.253143 221.833710,94.925262   C227.938736,96.231812 233.775955,96.789101 239.806900,94.309410   C242.964218,93.011238 246.879059,91.697205 249.077927,97.000259   C250.690674,95.793053 252.231323,94.639809 253.932739,93.172699  z" />
<path fill="#6D4585" stroke="none" d=" M197.867371,97.491547   C197.852112,97.921326 197.362045,97.875069 196.868271,97.609505   C196.263000,96.697617 196.273743,95.997375 196.016922,95.415138   C195.265930,93.712456 194.408279,92.056824 193.592422,90.382751   C192.076965,91.123413 190.506897,91.772667 189.064026,92.634781   C187.986542,93.278564 187.073303,94.197197 186.086914,94.993423   C189.390167,90.603142 192.693436,86.212875 196.322906,81.771103   C197.060287,86.833664 197.471451,91.947708 197.867371,97.491547  z" />
<path fill="#6D4585" stroke="none" d=" M226.072189,73.497879   C231.573746,75.193008 237.161758,77.238754 242.900833,79.592506   C241.222977,79.332352 239.366882,78.838387 237.570724,78.180695   C233.750183,76.781731 229.960785,75.297676 226.072189,73.497879  z" />
<path fill="#6D4585" stroke="none" d=" M197.094513,81.730789   C200.932953,76.252457 207.155243,74.736748 213.655273,73.124771   C212.711121,73.956215 211.408585,74.729637 210.063126,75.419350   C205.870514,77.568573 201.661652,79.686104 197.094513,81.730789  z" />
<path fill="#7B488F" stroke="none" d=" M190.900879,339.977539   C190.876984,339.562531 190.853088,339.147491 191.160095,338.130615   C191.659866,332.685028 191.828705,327.841278 191.997589,322.562073   C192.205124,319.996735 191.899017,317.644928 192.707047,315.774475   C196.690186,306.554138 200.676346,297.313080 205.217331,288.361359   C210.801041,277.354065 218.256912,267.724976 228.726562,260.840424   C233.012604,258.022034 237.563889,255.607040 241.994843,253.466782   C241.963318,259.447479 242.904160,265.116638 237.887375,269.468323   C235.965469,271.135468 233.095886,274.231476 233.584549,275.707642   C235.425171,281.267883 230.161331,283.909546 229.371216,288.356171   C228.590332,292.750885 225.869217,296.800781 223.721985,301.195984   C220.942841,303.630402 217.893250,305.499054 216.063095,308.195374   C213.067734,312.608429 210.918640,317.589691 208.293869,322.264618   C207.591263,323.516022 206.476913,324.542145 205.518417,325.642761   C203.775146,327.644470 201.610992,329.403015 200.344513,331.666931   C198.558838,334.858917 197.430145,338.418427 195.936630,342.023376   C194.152832,341.298706 192.526855,340.638123 190.900879,339.977539  M200.703537,324.568665   C200.989410,324.295776 201.275284,324.022919 201.561142,323.750031   C201.448013,323.631714 201.242737,323.404266 201.235016,323.410767   C200.933502,323.665436 200.649994,323.941437 200.703537,324.568665  z" />
<path fill="#24264C" stroke="none" d=" M174.999725,182.997360   C176.179260,183.149948 177.358810,183.302521 178.812363,184.099777   C179.968079,186.667084 180.849762,188.589706 182.173111,191.475418   C187.711761,192.306503 193.835190,193.177811 199.941040,194.158493   C203.905182,194.795197 206.684570,196.434814 208.234695,200.776993   C210.796951,207.954361 215.046631,209.985184 221.627609,208.473602   C225.274826,215.531281 222.862442,230.020325 217.618561,231.682983   C217.369461,231.102173 217.176468,230.470291 216.848251,229.918884   C215.500381,227.654434 214.111359,225.414459 212.737457,223.165482   C211.410400,225.285263 210.083817,227.405350 208.756134,229.524750   C207.478439,231.564346 206.505020,235.038177 204.866867,235.386841   C198.722488,236.694626 197.676712,241.046661 196.751373,246.002075   C196.502747,246.002945 196.005493,246.006104 195.656937,246.004395   C194.611404,245.999695 193.914444,245.996674 193.217468,245.993652   C193.163940,245.246338 193.110397,244.498993 193.277008,243.187897   C193.050644,241.749283 192.604126,240.874420 192.157593,239.999573   C190.888046,223.290955 183.309097,208.728378 176.811798,193.500000   C179.098373,193.007614 180.684662,192.287628 178.942978,190.299881   C177.738953,188.925735 176.729782,185.037384 173.655487,188.520401   C173.288300,187.978333 172.921097,187.436279 172.853912,186.400208   C173.769180,184.936584 174.384460,183.966980 174.999725,182.997360  z" />
<path fill="#6E4189" stroke="none" d=" M241.994507,253.008545   C237.563889,255.607040 233.012604,258.022034 228.726562,260.840424   C218.256912,267.724976 210.801041,277.354065 205.217331,288.361359   C200.676346,297.313080 196.690186,306.554138 192.707047,315.774475   C191.899017,317.644928 192.205124,319.996735 191.622864,322.563110   C190.258286,322.988312 189.268417,322.976990 188.278564,322.965668   C188.488953,316.945953 188.699356,310.926239 189.200195,304.229736   C190.994568,294.703156 192.498505,285.853424 194.272003,276.774719   C195.863510,270.524017 200.618851,268.456848 205.727417,266.680664   C209.021362,265.535431 212.934998,264.881348 215.305420,262.657928   C219.396866,258.820312 222.142853,253.574951 226.112152,249.573746   C231.334671,244.309250 238.716400,245.697571 242.001190,252.248840   C241.997925,252.670914 241.996216,252.839737 241.994507,253.008545  z" />
<path fill="#6D4585" stroke="none" d=" M241.994843,253.466782   C241.996216,252.839737 241.997925,252.670914 242.444153,252.250061   C245.125458,251.998016 247.362259,251.998016 249.276047,251.998016   C250.008179,249.449615 250.503937,247.724014 251.424530,245.998535   C253.274109,246.012436 254.698853,246.026215 256.123596,246.039978   C256.216644,246.569626 256.309692,247.099274 256.560486,247.844788   C256.699158,248.671371 256.680023,249.282120 256.633148,250.190353   C255.448593,253.336273 254.588776,256.353333 253.083694,259.003998   C246.492386,270.612213 239.738800,282.128754 232.981506,293.641815   C231.735489,295.764771 230.199997,297.717773 228.136826,299.914307   C226.316772,300.386902 225.157990,300.694427 223.999207,301.001953   C225.869217,296.800781 228.590332,292.750885 229.371216,288.356171   C230.161331,283.909546 235.425171,281.267883 233.584549,275.707642   C233.095886,274.231476 235.965469,271.135468 237.887375,269.468323   C242.904160,265.116638 241.963318,259.447479 241.994843,253.466782  z" />
<path fill="#633F86" stroke="none" d=" M250.999695,245.998383   C250.503937,247.724014 250.008179,249.449615 249.276047,251.998016   C247.362259,251.998016 245.125458,251.998016 242.445694,251.996811   C238.716400,245.697571 231.334671,244.309250 226.112152,249.573746   C222.142853,253.574951 219.396866,258.820312 215.305420,262.657928   C212.934998,264.881348 209.021362,265.535431 205.727417,266.680664   C200.618851,268.456848 195.863510,270.524017 194.002289,276.589233   C192.834442,276.031647 192.205872,275.430542 191.577301,274.829468   C191.616257,274.138275 191.655182,273.447052 192.118011,272.357605   C196.279938,268.220428 200.050613,264.513458 203.745361,260.732239   C206.544250,257.867859 209.246323,254.908875 212.227356,251.976379   C212.463211,251.960754 212.935745,251.955048 213.265884,251.933685   C214.059052,251.270020 214.522079,250.627731 214.991150,249.990585   C214.997192,249.995743 214.980606,249.984711 215.354858,249.986877   C218.155579,248.333939 220.582047,246.678833 223.121872,244.800674   C223.506653,244.391083 223.778061,244.204544 224.464203,244.015747   C229.120483,242.652390 233.450256,241.513489 237.581116,239.873505   C242.654816,237.859177 245.484283,238.751038 248.169830,243.551117   C248.742294,244.574341 250.037460,245.193222 250.999695,245.998383  z" />
<path fill="#764C86" stroke="none" d=" M223.721985,301.196014   C225.157990,300.694427 226.316772,300.386902 227.845612,300.088379   C225.701981,303.969788 223.238449,307.875916 220.665710,311.708740   C210.294449,327.159668 200.821411,343.060394 196.079605,361.361328   C195.546478,361.357635 195.013351,361.353943 194.480225,361.350250   C193.276489,354.513794 192.072769,347.677307 190.884949,340.409180   C192.526855,340.638123 194.152832,341.298706 195.936630,342.023376   C197.430145,338.418427 198.558838,334.858917 200.344513,331.666931   C201.610992,329.403015 203.775146,327.644470 205.518417,325.642761   C206.476913,324.542145 207.591263,323.516022 208.293869,322.264618   C210.918640,317.589691 213.067734,312.608429 216.063095,308.195374   C217.893250,305.499054 220.942841,303.630402 223.721985,301.196014  z" />
<path fill="#302E58" stroke="none" d=" M191.992249,267.010010   C192.344589,263.606659 192.696915,260.203339 193.458679,256.391449   C194.911880,255.320740 195.955627,254.658539 197.423096,253.997406   C200.906647,253.670853 203.966476,253.343231 206.882629,253.317108   C201.823395,258.082397 196.907837,262.546204 191.992249,267.010010  z" />
<path fill="#573E79" stroke="none" d=" M191.902893,267.422607   C196.907837,262.546204 201.823395,258.082397 207.139008,253.207123   C208.025070,252.521408 208.511093,252.247162 209.371475,251.983368   C210.494385,251.993210 211.242935,251.992599 211.991486,251.991989   C209.246323,254.908875 206.544250,257.867859 203.745361,260.732239   C200.050613,264.513458 196.279938,268.220428 192.165421,272.014221   C191.797134,270.657806 191.805313,269.246490 191.902893,267.422607  z" />
<path fill="#6D4585" stroke="none" d=" M191.297028,275.084839   C192.205872,275.430542 192.834442,276.031647 193.732727,276.818207   C192.498505,285.853424 190.994568,294.703156 189.181305,303.811462   C188.838440,299.695831 188.501709,295.297424 188.849396,290.953796   C189.267929,285.724915 190.268280,280.542664 191.297028,275.084839  z" />
<path fill="#764C86" stroke="none" d=" M188.203110,323.381348   C189.268417,322.976990 190.258286,322.988312 191.622849,322.998596   C191.828705,327.841278 191.659866,332.685028 191.166534,337.818787   C189.937256,333.338226 189.032455,328.567657 188.203110,323.381348  z" />
<path fill="#27284F" stroke="none" d=" M196.999390,253.996338   C195.955627,254.658539 194.911880,255.320740 193.539963,255.984406   C193.173752,252.955734 193.135696,249.925568 193.157562,246.444519   C193.914444,245.996674 194.611404,245.999695 195.656799,246.411362   C196.336609,249.212128 196.667999,251.604233 196.999390,253.996338  z" />
<path fill="#27284F" stroke="none" d=" M173.651306,188.830261   C176.729782,185.037384 177.738953,188.925735 178.942978,190.299881   C180.684662,192.287628 179.098373,193.007614 176.724899,193.135132   C175.420593,191.833786 174.533875,190.486938 173.651306,188.830261  z" />
<path fill="#27284F" stroke="none" d=" M174.801041,182.723083   C174.384460,183.966980 173.769180,184.936584 172.833420,186.064270   C171.839294,185.215652 171.165665,184.208969 170.521713,182.900345   C171.901718,182.548538 173.252029,182.498672 174.801041,182.723083  z" />
<path fill="#27284F" stroke="none" d=" M192.102661,240.338776   C192.604126,240.874420 193.050644,241.749283 193.243896,242.813889   C192.676346,242.228424 192.362030,241.453186 192.102661,240.338776  z" />
<path fill="#27284F" stroke="none" d=" M197.000000,246.001221   C197.676712,241.046661 198.722488,236.694626 204.866867,235.386841   C206.505020,235.038177 207.478439,231.564346 208.756134,229.524750   C210.083817,227.405350 211.410400,225.285263 212.737457,223.165482   C214.111359,225.414459 215.500381,227.654434 216.848251,229.918884   C217.176468,230.470291 217.369461,231.102173 217.618561,231.682983   C222.862442,230.020325 225.274826,215.531281 221.627609,208.473602   C215.046631,209.985184 210.796951,207.954361 208.234695,200.776993   C206.684570,196.434814 203.905182,194.795197 199.941040,194.158493   C193.835190,193.177811 187.711761,192.306503 182.173111,191.475418   C180.849762,188.589706 179.968079,186.667084 179.043793,184.372528   C182.789429,184.854935 186.563660,185.781921 190.375031,186.515961   C191.417465,186.716721 192.573898,186.223618 193.673721,186.247421   C196.948700,186.318329 200.404068,185.860107 203.457596,186.748123   C210.044556,188.663681 216.676849,184.319107 214.718750,178.096069   C212.653076,171.531281 214.512512,165.888702 215.840866,159.893951   C215.935944,159.464935 215.656326,158.952911 215.135223,157.914337   C214.518753,156.082352 214.317978,154.815506 213.918121,152.292603   C216.751297,154.396820 218.418213,155.634857 219.415741,156.375748   C220.099747,153.980530 220.693787,151.900391 221.287811,149.820251   C222.898071,151.836395 224.508331,153.852539 226.120941,156.570984   C226.780640,157.827042 227.438019,158.380783 228.095383,158.934525   C228.095383,158.934525 228.057480,158.887253 228.006866,159.250519   C226.838776,161.875320 225.721283,164.136841 224.603790,166.398346   C229.407990,166.178268 231.168533,174.571701 237.209167,170.852615   C237.828903,171.618164 238.448639,172.383698 239.051819,173.888519   C238.075546,179.695816 241.904297,181.128677 245.304932,182.886536   C245.304932,182.886536 245.469482,183.124741 245.330658,183.639832   C245.813705,184.766113 246.435593,185.377319 247.057465,185.988525   C247.267654,186.248047 247.406662,186.541306 247.334808,187.537659   C248.740921,190.815506 250.286682,193.423981 251.832458,196.032471   C252.009171,196.619232 252.185898,197.205994 252.271027,198.527832   C253.464767,206.072189 254.694504,212.893005 256.104492,219.676376   C256.284637,220.543076 257.404572,221.214417 258.089172,221.976242   C258.136047,222.416931 258.182953,222.857620 257.879883,223.869934   C257.022827,226.629593 256.515686,228.817596 255.617981,231.009766   C252.151001,231.341110 249.074585,231.668335 245.997757,231.590271   C245.599976,229.084198 245.499969,226.858643 244.690964,224.930588   C244.224182,223.818176 242.255783,222.237610 241.574341,222.493713   C237.488892,224.029099 233.434296,225.782516 229.656937,227.961426   C226.263245,229.919022 223.027939,234.675400 220.096130,234.388046   C213.845108,233.775345 210.045273,236.208847 206.386703,240.288528   C205.313904,241.484802 204.370377,242.957489 203.034348,243.718353   C201.188263,244.769669 199.026550,245.266769 197.000000,246.001221  z" />
<path fill="#2B2E5C" stroke="none" d=" M202.002441,146.004272   C201.670288,148.115784 200.902924,150.270172 201.105850,152.328949   C201.427155,155.588776 201.961182,158.996979 206.633408,159.088593   C209.373123,159.142319 209.508026,160.808716 208.102478,162.798355   C205.946320,165.850540 203.738770,168.046829 199.378952,168.610992   C193.424774,169.381439 187.754959,172.143936 181.825684,173.406509   C179.179962,173.969910 176.199158,172.959808 173.186554,171.951202   C174.181427,169.390335 175.244949,167.454834 176.563980,165.712784   C178.975815,162.527435 182.277344,159.792618 183.881927,156.266525   C187.035690,149.336258 188.034378,141.486588 193.181854,135.350739   C194.336975,133.973831 194.769547,131.724518 194.913757,129.829575   C195.118362,127.141136 196.127792,125.821121 198.874817,126.045746   C199.287003,126.457535 199.699203,126.869324 199.819672,127.764626   C199.144012,130.389160 198.126251,132.652664 198.511215,134.645126   C199.258316,138.511993 200.793686,142.226578 202.002441,146.004272  z" />
<path fill="#2A73A2" stroke="none" d=" M255.934814,129.992920   C253.550430,132.928253 251.166046,135.863602 248.136810,138.948517   C244.661209,141.709869 241.830429,144.321640 238.999664,146.933411   C237.232605,147.598190 235.465561,148.262970 233.082184,148.672028   C230.562927,148.346634 228.659988,148.276993 226.757065,148.207352   C225.915421,147.652542 225.073792,147.097733 224.114471,145.865601   C223.811707,140.461288 222.352478,136.709381 216.950897,135.612915   C215.253616,130.940811 217.906219,128.679169 221.169449,127.151344   C225.114182,125.304451 228.931854,125.329628 233.495422,126.623787   C240.707077,128.668900 248.851044,125.879578 255.934814,129.992920  z" />
<path fill="#425B7C" stroke="none" d=" M256.125183,129.686142   C248.851044,125.879578 240.707077,128.668900 233.495422,126.623787   C228.931854,125.329628 225.114182,125.304451 221.169449,127.151344   C217.906219,128.679169 215.253616,130.940811 216.623413,135.576385   C215.254196,135.566055 214.215729,135.228287 213.177261,134.890533   C207.726959,129.598846 202.276657,124.307159 196.480438,118.494972   C193.197327,114.809044 190.260117,111.643616 187.322906,108.478188   C186.266571,105.789543 185.210220,103.100899 184.712311,100.322006   C185.969025,103.688545 188.031952,105.198555 191.593918,105.062019   C193.027237,105.007072 194.487869,105.664467 195.960114,106.366821   C195.984146,109.048653 195.984146,111.361313 195.984146,114.653069   C196.656601,115.457436 197.971390,117.366821 199.618713,118.924545   C202.334915,121.493004 204.467133,126.732376 209.419815,121.515663   C209.873001,121.038300 211.583664,121.535126 212.616608,121.869370   C215.591766,122.832069 223.212326,120.534248 225.467422,118.103195   C227.666550,121.591415 230.024551,123.824394 234.374115,122.745171   C240.836624,121.141663 242.632248,117.823853 240.906952,110.059067   C241.081161,109.994659 241.255356,109.930252 241.973602,110.093063   C242.906723,111.053574 243.422409,111.747414 243.665176,112.526314   C245.992416,119.992836 248.256836,121.129326 255.561371,118.423004   C256.752045,119.317451 257.941681,120.213264 259.131348,121.109070   C258.192749,123.865837 257.254150,126.622604 256.125183,129.686142  z" />
<path fill="#302E58" stroke="none" d=" M202.372665,146.007599   C200.793686,142.226578 199.258316,138.511993 198.511215,134.645126   C198.126251,132.652664 199.144012,130.389160 199.887451,128.066345   C207.159546,134.994675 214.072128,142.104767 221.136261,149.517563   C220.693787,151.900391 220.099747,153.980530 219.415741,156.375748   C218.418213,155.634857 216.751297,154.396820 213.918121,152.292603   C214.317978,154.815506 214.518753,156.082352 214.860992,157.674896   C210.897324,158.204086 210.575272,154.559448 208.836075,152.198303   C207.136856,149.891418 204.799881,148.054291 202.372665,146.007599  z" />
<path fill="#263E69" stroke="none" d=" M198.793091,125.740677   C196.127792,125.821121 195.118362,127.141136 194.913757,129.829575   C194.769547,131.724518 194.336975,133.973831 193.181854,135.350739   C188.034378,141.486588 187.035690,149.336258 183.881927,156.266525   C182.277344,159.792618 178.975815,162.527435 176.563980,165.712784   C175.244949,167.454834 174.181427,169.390335 172.997986,171.609314   C170.558807,172.969925 168.124344,173.959808 165.321747,174.974579   C164.576767,174.236130 164.199890,173.472794 164.127502,172.248962   C166.302887,169.687271 168.287262,167.674850 170.017303,165.463440   C172.428925,162.380829 174.650314,159.149399 176.953110,155.981659   C176.953110,155.981659 177.064316,155.571915 177.415497,155.271973   C179.164978,152.639893 180.563278,150.307724 181.961578,147.975571   C181.961578,147.975571 181.994980,148.003754 182.298126,147.861359   C183.393738,146.142395 184.186234,144.565826 184.978729,142.989273   C185.276459,142.197479 185.574188,141.405685 186.184906,140.115936   C189.005096,133.492401 191.512314,127.366814 194.330841,121.267136   C195.054184,121.351700 195.466248,121.410362 195.878296,121.469025   C196.822662,122.791214 197.767014,124.113411 198.793091,125.740677  z" />
<path fill="#263E69" stroke="none" d=" M259.392700,120.901001   C257.941681,120.213264 256.752045,119.317451 255.561371,118.423004   C248.256836,121.129326 245.992416,119.992836 243.665176,112.526314   C243.422409,111.747414 242.906723,111.053574 242.248566,110.048233   C242.799820,104.331268 247.674789,102.127068 252.359024,104.781998   C254.226181,105.840263 255.893158,109.618622 259.143402,105.939697   C259.617676,108.871864 259.765137,111.976974 259.581451,115.575066   C259.423340,116.732407 259.596344,117.396767 259.769379,118.061127   C259.730927,118.938393 259.692505,119.815666 259.392700,120.901001  z" />
<path fill="#573E79" stroke="none" d=" M251.424530,245.998520   C250.037460,245.193222 248.742294,244.574341 248.169830,243.551117   C245.484283,238.751038 242.654816,237.859177 237.581116,239.873505   C233.450256,241.513489 229.120483,242.652390 224.448166,243.767151   C224.017410,243.520813 224.002197,243.023300 224.327087,242.873932   C234.464951,237.548676 244.893112,234.570969 256.257935,233.965256   C257.073639,233.957962 257.614044,233.941727 258.154419,233.925507   C258.291016,236.145142 258.427582,238.364761 258.547668,240.982758   C257.771545,242.714233 257.011932,244.047379 256.187988,245.710266   C254.698853,246.026215 253.274109,246.012436 251.424530,245.998520  z" />
<path fill="#44355B" stroke="none" d=" M237.140320,170.513596   C231.168533,174.571701 229.407990,166.178268 224.603790,166.398346   C225.721283,164.136841 226.838776,161.875320 228.037170,159.250702   C231.102539,162.649918 234.087006,166.412247 237.140320,170.513596  z" />
<path fill="#95C9E3" stroke="none" d=" M195.938828,120.994171   C195.466248,121.410362 195.054184,121.351700 194.200592,120.961823   C193.171341,120.366364 192.583603,120.102127 191.843262,119.551849   C190.132782,118.173897 188.574951,117.081963 186.869293,115.685532   C186.089737,113.997261 185.457993,112.613503 184.826248,111.229744   C185.581894,110.577393 186.337555,109.925041 187.208069,108.875443   C190.260117,111.643616 193.197327,114.809044 196.206528,118.298660   C196.185471,119.255005 196.092422,119.887161 195.938828,120.994171  z" />
<path fill="#5179A1" stroke="none" d=" M213.161407,135.243240   C214.215729,135.228287 215.254196,135.566055 216.620148,135.940369   C222.352478,136.709381 223.811707,140.461288 223.976135,145.587418   C220.352173,142.523026 216.748871,139.059479 213.161407,135.243240  z" />
<path fill="#44355B" stroke="none" d=" M258.163086,221.533096   C257.404572,221.214417 256.284637,220.543076 256.104492,219.676376   C254.694504,212.893005 253.464767,206.072189 252.267761,198.835815   C256.864380,205.308472 257.615326,213.182449 258.163086,221.533096  z" />
<path fill="#5179A1" stroke="none" d=" M239.349426,146.929733   C241.830429,144.321640 244.661209,141.709869 247.864639,139.134521   C245.391266,141.755981 242.545227,144.341019 239.349426,146.929733  z" />
<path fill="#44355B" stroke="none" d=" M245.265244,182.531982   C241.904297,181.128677 238.075546,179.695816 239.087250,174.190155   C241.167999,176.560822 243.196777,179.369125 245.265244,182.531982  z" />
<path fill="#44355B" stroke="none" d=" M258.327911,233.514008   C257.614044,233.941727 257.073639,233.957962 256.262207,233.597275   C255.996933,232.482101 256.002747,231.743866 256.008545,231.005615   C256.515686,228.817596 257.022827,226.629593 257.835510,224.200470   C258.261200,227.007080 258.381287,230.054810 258.327911,233.514008  z" />
<path fill="#44355B" stroke="none" d=" M251.868347,195.667664   C250.286682,193.423981 248.740921,190.815506 247.324982,187.782928   C248.937973,190.006851 250.421097,192.654861 251.868347,195.667664  z" />
<path fill="#5179A1" stroke="none" d=" M226.878815,148.557693   C228.659988,148.276993 230.562927,148.346634 232.727997,148.711243   C230.993607,148.973480 228.997086,148.940765 226.878815,148.557693  z" />
<path fill="#44355B" stroke="none" d=" M247.042786,185.659592   C246.435593,185.377319 245.813705,184.766113 245.286026,183.777527   C245.929535,184.043655 246.478836,184.687149 247.042786,185.659592  z" />
<path fill="#425B7C" stroke="none" d=" M259.837341,117.710861   C259.596344,117.396767 259.423340,116.732407 259.521088,116.005692   C259.829681,116.415749 259.867493,116.888176 259.837341,117.710861  z" />
<path fill="#302E58" stroke="none" d=" M228.065338,158.606354   C227.438019,158.380783 226.780640,157.827042 226.154327,156.896423   C226.802017,157.105743 227.418655,157.691956 228.065338,158.606354  z" />
<path fill="#84B8D0" stroke="none" d=" M148.066345,70.904579   C151.998230,75.523903 155.854630,80.210228 159.880432,84.746201   C165.353714,90.913063 170.980026,96.943886 176.485306,103.082726   C177.692337,104.428658 178.666275,105.983612 179.841156,108.086731   C178.504944,113.002365 176.635193,108.635681 175.000916,108.616425   C173.144653,106.078766 171.702484,103.161118 169.363480,101.876785   C162.711563,98.224251 157.996429,93.054398 154.573547,86.411148   C152.564362,82.511658 150.198853,78.795753 147.995667,74.589249   C148.020599,73.089012 148.043472,71.996796 148.066345,70.904579  z" />
<path fill="#6FAED0" stroke="none" d=" M148.007095,70.576462   C148.043472,71.996796 148.020599,73.089012 147.679703,74.747971   C145.752167,76.049751 143.657562,76.371078 142.616974,77.591293   C138.064117,82.930061 135.243118,79.682755 131.552795,76.304855   C128.593613,73.596199 124.563637,72.057358 120.649719,69.934769   C119.869995,68.577126 119.449402,67.284096 119.416306,65.991013   C122.229820,67.187233 124.965225,68.004059 127.008339,69.669937   C129.971786,72.086220 132.165649,73.241966 135.371735,69.833778   C137.380569,67.698303 140.452805,66.563156 143.047913,64.979187   C144.681229,66.735573 146.314529,68.491959 148.007095,70.576462  z" />
<path fill="#6FAED0" stroke="none" d=" M175.005493,108.982216   C176.635193,108.635681 178.504944,113.002365 179.960968,108.408646   C181.427689,109.004524 182.868210,109.922905 184.567474,111.035522   C185.457993,112.613503 186.089737,113.997261 186.703461,116.011803   C184.233292,122.894440 178.481277,123.736221 172.637115,124.944901   C167.852219,119.765022 168.016037,119.137169 173.730331,116.787537   C174.556488,116.447845 175.253525,114.943619 175.363663,113.909424   C175.535294,112.298019 175.153030,110.627617 175.005493,108.982216  z" />
<path fill="#5E93BA" stroke="none" d=" M117.066910,58.034561   C118.767990,58.730511 120.469070,59.426460 121.110794,59.689003   C126.664406,57.833771 131.599960,56.185009 136.782867,54.254673   C137.996613,55.431427 138.963028,56.889748 139.671661,58.898998   C138.012527,60.630814 136.791733,62.261009 135.176636,62.910122   C129.880829,65.038506 124.439445,65.116196 119.000618,62.671822   C118.323151,60.897541 117.695030,59.466049 117.066910,58.034561  z" />
<path fill="#573E79" stroke="none" d=" M195.936066,105.997658   C194.487869,105.664467 193.027237,105.007072 191.593918,105.062019   C188.031952,105.198555 185.969025,103.688545 184.928070,100.017822   C184.980835,98.419579 185.376297,97.035278 185.929352,95.322205   C187.073303,94.197197 187.986542,93.278564 189.064026,92.634781   C190.506897,91.772667 192.076965,91.123413 193.592422,90.382751   C194.408279,92.056824 195.265930,93.712456 196.016922,95.415138   C196.273743,95.997375 196.263000,96.697617 196.622406,97.597954   C196.904755,98.956169 196.939194,100.060371 196.705109,101.812637   C196.269745,103.639694 196.102905,104.818672 195.936066,105.997658  z" />
<path fill="#61A7CE" stroke="none" d=" M119.049965,63.014610   C124.439445,65.116196 129.880829,65.038506 135.176636,62.910122   C136.791733,62.261009 138.012527,60.630814 139.701523,59.241707   C140.980331,60.784767 141.971527,62.536045 143.005310,64.633255   C140.452805,66.563156 137.380569,67.698303 135.371735,69.833778   C132.165649,73.241966 129.971786,72.086220 127.008339,69.669937   C124.965225,68.004059 122.229820,67.187233 119.407288,65.618942   C119.023834,64.502823 119.036903,63.758717 119.049965,63.014610  z" />
<path fill="#5179A1" stroke="none" d=" M128.957886,33.640827   C127.982910,34.165127 126.798447,34.074368 126.145630,34.619858   C122.866997,37.359444 122.116745,35.172344 121.275551,32.197666   C122.180779,28.639250 123.359657,25.316505 124.538544,21.993759   C125.106827,22.105082 125.675110,22.216402 126.243393,22.327723   C126.818565,24.287027 127.393738,26.246332 127.746765,28.767750   C128.001083,30.229376 128.477539,31.128889 128.953995,32.028404   C128.967178,32.458656 128.980362,32.888905 128.957886,33.640827  z" />
<path fill="#698EA2" stroke="none" d=" M129.000275,31.686737   C128.477539,31.128889 128.001083,30.229376 127.793304,29.135744   C128.390167,29.742773 128.718369,30.543921 129.000275,31.686737  z" />
<path fill="#61A7CE" stroke="none" d=" M172.985840,124.998642   C178.481277,123.736221 184.233292,122.894440 186.851273,116.316315   C188.574951,117.081963 190.132782,118.173897 191.754364,119.846405   C190.876068,122.948929 189.934036,125.470863 188.992004,127.992805   C184.103256,128.534363 181.605804,130.755066 180.737427,136.110550   C180.103851,140.017990 180.207031,145.212158 173.583099,146.451050   C169.882980,147.143082 166.931335,151.400726 163.405472,153.686111   C162.085266,154.541840 160.068924,154.684113 158.414368,154.559952   C156.826141,154.440750 155.295410,153.555511 153.343781,152.981445   C152.948135,152.955978 152.907745,152.524368 153.081665,151.992996   C159.581268,147.764847 165.924927,144.098373 172.226822,140.361435   C177.037720,137.508636 178.000198,131.210526 173.749542,128.768921   C173.311752,127.358749 173.148804,126.178696 172.985840,124.998642  z" />
<path fill="#5179A1" stroke="none" d=" M176.608017,156.013611   C174.650314,159.149399 172.428925,162.380829 170.017303,165.463440   C168.287262,167.674850 166.302887,169.687271 164.100220,171.906876   C163.156601,170.963257 162.544724,169.901215 161.914444,168.498535   C162.926468,166.529266 164.019577,163.469299 164.976807,163.511215   C170.053711,163.733627 171.890884,159.873535 174.584305,156.991943   C175.002579,156.544434 175.696472,156.354568 176.608017,156.013611  z" />
<path fill="#5179A1" stroke="none" d=" M188.996857,128.375732   C189.934036,125.470863 190.876068,122.948929 191.906982,120.132431   C192.583603,120.102127 193.171341,120.366364 193.889297,120.935913   C191.512314,127.366814 189.005096,133.492401 186.196671,139.797455   C186.602646,137.154251 187.287216,134.325592 188.029785,131.512253   C188.277374,130.574219 188.673492,129.675415 188.996857,128.375732  z" />
<path fill="#5179A1" stroke="none" d=" M181.623505,148.029343   C180.563278,150.307724 179.164978,152.639893 177.440964,155.061249   C178.505310,152.794662 179.895370,150.438889 181.623505,148.029343  z" />
<path fill="#5179A1" stroke="none" d=" M184.631897,143.043549   C184.186234,144.565826 183.393738,146.142395 182.287537,147.843124   C182.744232,146.344131 183.514648,144.720978 184.631897,143.043549  z" />
<path fill="#84B8D0" stroke="none" d=" M119.000618,62.671822   C119.036903,63.758717 119.023834,64.502823 119.019791,65.619003   C119.449402,67.284096 119.869995,68.577126 120.652359,70.319290   C121.343262,72.511566 121.672401,74.254715 121.968781,76.335175   C120.586700,78.141327 119.237404,79.610184 117.888107,81.079041   C117.121826,79.449471 115.736359,77.833961 115.698959,76.187828   C115.554932,69.848778 115.842163,63.499924 116.319420,56.998512   C116.752419,57.035461 116.834602,57.228622 116.991844,57.728172   C117.695030,59.466049 118.323151,60.897541 119.000618,62.671822  z" />
<path fill="#74BADA" stroke="none" d=" M122.001549,75.997864   C121.672401,74.254715 121.343262,72.511566 121.011490,70.383904   C124.563637,72.057358 128.593613,73.596199 131.552795,76.304855   C135.243118,79.682755 138.064117,82.930061 142.616974,77.591293   C143.657562,76.371078 145.752167,76.049751 147.677643,75.155998   C150.198853,78.795753 152.564362,82.511658 154.573547,86.411148   C157.996429,93.054398 162.711563,98.224251 169.363480,101.876785   C171.702484,103.161118 173.144653,106.078766 175.000916,108.616425   C175.153030,110.627617 175.535294,112.298019 175.363663,113.909424   C175.253525,114.943619 174.556488,116.447845 173.730331,116.787537   C168.016037,119.137169 167.852219,119.765022 172.637115,124.944901   C173.148804,126.178696 173.311752,127.358749 173.737000,129.135834   C172.963364,130.844528 172.031204,132.080322 170.874390,133.047348   C164.174683,138.647934 154.403412,140.637970 150.942703,150.043961   C149.529800,148.780579 148.116898,147.517212 146.423187,146.102600   C145.742126,144.565536 145.341843,143.179688 144.962708,141.161316   C144.998169,140.348312 145.012512,140.167831 145.384766,140.033661   C147.174515,140.729050 148.606339,141.378143 149.285797,141.686172   C151.434845,139.324661 152.866974,137.138153 154.847580,135.714844   C158.002533,133.447662 161.688721,131.920944 164.850021,129.661087   C169.707245,126.188858 169.324677,122.681953 164.008392,118.742256   C164.005798,118.495308 163.997559,118.001450 163.964874,117.653595   C160.958405,114.200157 157.984634,111.094566 155.007614,107.742706   C155.004379,107.496437 154.994507,107.003967 154.851837,106.701401   C146.415726,97.041664 138.124969,87.682098 129.826935,78.328995   C127.707054,75.939583 125.287666,74.499443 122.001549,75.997864  z" />
<path fill="#7DC4E7" stroke="none" d=" M121.968781,76.335175   C125.287666,74.499443 127.707054,75.939583 129.826935,78.328995   C138.124969,87.682098 146.415726,97.041664 154.484467,106.696892   C150.188568,102.912186 145.402359,99.319977 142.194916,94.644669   C135.495193,84.878891 129.755157,82.984077 120.746140,88.807770   C119.642349,87.405991 118.798370,86.200920 117.954391,84.995850   C117.946884,83.949562 117.939384,82.903282 117.909988,81.468018   C119.237404,79.610184 120.586700,78.141327 121.968781,76.335175  z" />
<path fill="#95C9E3" stroke="none" d=" M117.693008,85.229218   C118.798370,86.200920 119.642349,87.405991 120.784111,89.178543   C125.675041,105.106010 133.868790,118.807663 141.001617,133.329849   C141.003586,134.105042 141.006378,134.547943 140.986389,135.012939   C140.963608,135.035049 140.917389,135.078568 140.917389,135.078568   C137.533127,130.106995 133.465195,125.460670 130.912033,120.093727   C126.125175,110.031334 122.186882,99.563324 117.980103,89.229645   C117.515602,88.088615 117.601166,86.723679 117.693008,85.229218  z" />
<path fill="#95C9E3" stroke="none" d=" M145.026855,139.987366   C145.012512,140.167831 144.998169,140.348312 144.940308,140.797623   C143.587234,139.307938 142.277695,137.549423 140.942764,135.434738   C140.917389,135.078568 140.963608,135.035049 141.320084,135.016449   C142.121933,134.997345 142.567322,134.996841 143.228790,135.105194   C143.714310,135.412231 143.900757,135.670349 144.033325,136.334686   C144.383896,137.783096 144.705383,138.885239 145.026855,139.987366  z" />
<path fill="#6FAED0" stroke="none" d=" M151.072403,150.303467   C154.403412,140.637970 164.174683,138.647934 170.874390,133.047348   C172.031204,132.080322 172.963364,130.844528 174.011810,129.365967   C178.000198,131.210526 177.037720,137.508636 172.226822,140.361435   C165.924927,144.098373 159.581268,147.764847 153.077209,151.776276   C152.333267,151.581619 151.767685,151.072281 151.072403,150.303467  z" />
<path fill="#263E69" stroke="none" d=" M195.960114,106.366821   C196.102905,104.818672 196.269745,103.639694 196.703537,102.223434   C202.861038,104.173615 208.638229,106.139107 215.259125,105.264374   C218.204941,104.875183 222.455246,104.999489 223.961426,110.059875   C224.257050,112.542236 224.515808,114.290863 224.880859,116.351837   C225.044724,117.100166 225.102280,117.536156 225.159851,117.972137   C223.212326,120.534248 215.591766,122.832069 212.616608,121.869370   C211.583664,121.535126 209.873001,121.038300 209.419815,121.515663   C204.467133,126.732376 202.334915,121.493004 199.618713,118.924545   C197.971390,117.366821 196.656601,115.457436 195.984146,114.653069   C195.984146,111.361313 195.984146,109.048653 195.960114,106.366821  z" />
<path fill="#E2E4E9" stroke="none" d=" M225.467407,118.103195   C225.102280,117.536156 225.044724,117.100166 225.003647,115.978760   C225.367950,113.545479 225.715775,111.797615 226.063599,110.049751   C227.498032,109.048103 228.932480,108.046463 231.079529,107.012878   C233.207138,106.886093 234.622147,106.791245 236.037155,106.696411   C237.457489,107.726265 238.877823,108.756119 240.602554,109.922516   C242.632248,117.823853 240.836624,121.141663 234.374115,122.745171   C230.024551,123.824394 227.666550,121.591415 225.467407,118.103195  z" />
<path fill="#425B7C" stroke="none" d=" M225.720856,110.024094   C225.715775,111.797615 225.367950,113.545479 224.897339,115.666412   C224.515808,114.290863 224.257050,112.542236 224.001648,110.428925   C224.462708,110.042313 224.920410,110.020370 225.720856,110.024094  z" />
<path fill="#425B7C" stroke="none" d=" M235.961273,106.358902   C234.622147,106.791245 233.207138,106.886093 231.380127,106.863823   C232.607208,106.504944 234.246307,106.263176 235.961273,106.358902  z" />
<path fill="#764C86" stroke="none" d=" M200.533829,324.391663   C200.649994,323.941437 200.933502,323.665436 201.235016,323.410767   C201.242737,323.404266 201.448013,323.631714 201.561157,323.750061   C201.275284,324.022919 200.989410,324.295776 200.533829,324.391663  z" />
<path fill="#262B56" stroke="none" d=" M196.751373,246.002090   C199.026550,245.266769 201.188263,244.769669 203.034348,243.718353   C204.370377,242.957489 205.313904,241.484802 206.386703,240.288528   C210.045273,236.208847 213.845108,233.775345 220.096130,234.388046   C223.027939,234.675400 226.263245,229.919022 229.656937,227.961426   C233.434296,225.782516 237.488892,224.029099 241.574341,222.493713   C242.255783,222.237610 244.224182,223.818176 244.690964,224.930588   C245.499969,226.858643 245.599976,229.084198 245.585709,231.590744   C239.444839,229.982025 234.898773,231.510086 231.087021,236.236221   C230.223694,237.306671 228.240051,237.719894 226.699097,237.952927   C221.331223,238.764694 215.901306,242.837479 214.611481,246.996262   C211.363510,247.473923 208.784576,248.251801 208.997116,251.972900   C208.511093,252.247162 208.025070,252.521408 207.282684,252.905624   C203.966476,253.343231 200.906647,253.670853 197.423096,253.997406   C196.667999,251.604233 196.336609,249.212128 196.005341,246.413055   C196.005493,246.006104 196.502747,246.002945 196.751373,246.002090  z" />
<path fill="#573E79" stroke="none" d=" M223.008514,245.023712   C220.582047,246.678833 218.155579,248.333939 215.271317,249.768890   C214.875473,249.030060 214.937439,248.511368 215.223572,247.892044   C215.726349,247.595062 215.917511,247.334549 216.369293,247.010284   C217.814636,246.332870 218.911896,245.655029 220.383957,244.983536   C221.508682,245.001160 222.258606,245.012436 223.008514,245.023712  z" />
<path fill="#302E58" stroke="none" d=" M214.999390,247.992676   C214.937439,248.511368 214.875473,249.030060 214.897064,249.766724   C214.980606,249.984711 214.997192,249.995743 214.671448,250.028625   C213.875717,250.692688 213.405731,251.323868 212.935745,251.955048   C212.935745,251.955048 212.463211,251.960754 212.227356,251.976379   C211.242935,251.992599 210.494385,251.993210 209.371475,251.983353   C208.784576,248.251801 211.363510,247.473923 214.618347,247.003113   C215.001434,247.001434 215.012817,247.012817 215.009460,247.257782   C215.006119,247.502747 214.999390,247.992676 214.999390,247.992676  z" />
<path fill="#44355B" stroke="none" d=" M223.121872,244.800659   C222.258606,245.012436 221.508682,245.001160 220.446503,244.627838   C221.423538,243.851624 222.712860,243.437454 224.002197,243.023285   C224.002197,243.023300 224.017410,243.520813 224.033447,243.769409   C223.778061,244.204544 223.506653,244.391083 223.121872,244.800659  z" />
<path fill="#573E79" stroke="none" d=" M213.265884,251.933685   C213.405731,251.323868 213.875717,250.692688 214.665405,250.023468   C214.522079,250.627731 214.059052,251.270020 213.265884,251.933685  z" />
<path fill="#302E58" stroke="none" d=" M224.327087,242.873917   C222.712860,243.437454 221.423538,243.851624 220.071686,244.621490   C218.911896,245.655029 217.814636,246.332870 216.117081,247.009705   C215.348801,247.010056 215.180817,247.011429 215.012817,247.012817   C215.012817,247.012817 215.001434,247.001434 214.994568,246.994598   C215.901306,242.837479 221.331223,238.764694 226.699097,237.952927   C228.240051,237.719894 230.223694,237.306671 231.087021,236.236221   C234.898773,231.510086 239.444839,229.982025 245.586121,231.996033   C249.074585,231.668335 252.151001,231.341110 255.617981,231.009766   C256.002747,231.743866 255.996933,232.482101 255.986877,233.588333   C244.893112,234.570969 234.464951,237.548676 224.327087,242.873917  z" />
<path fill="#83CEF0" stroke="none" d=" M144.004211,135.988403   C143.900757,135.670349 143.714310,135.412231 143.183411,134.785095   C142.282120,133.903275 141.642273,133.450424 141.002441,132.997559   C133.868790,118.807663 125.675041,105.106010 121.043930,89.375244   C129.755157,82.984077 135.495193,84.878891 142.194916,94.644669   C145.402359,99.319977 150.188568,102.912186 154.627121,106.999458   C154.994507,107.003967 155.004379,107.496437 155.037354,108.096680   C158.046066,111.798431 161.021820,114.899940 163.997559,118.001450   C163.997559,118.001450 164.005798,118.495308 164.044586,119.118004   C165.065262,122.301910 165.646271,124.492386 161.713013,125.126472   C160.619598,125.302734 159.847626,127.142235 158.814011,128.094818   C157.112717,129.662720 154.247498,132.727402 153.734451,132.383560   C149.995956,129.878006 148.866257,132.887695 146.979172,134.777008   C146.282013,135.474960 145.012619,135.601334 144.004211,135.988403  z" />
<path fill="#7DC4E7" stroke="none" d=" M144.033325,136.334686   C145.012619,135.601334 146.282013,135.474960 146.979172,134.777008   C148.866257,132.887695 149.995956,129.878006 153.734451,132.383560   C154.247498,132.727402 157.112717,129.662720 158.814011,128.094818   C159.847626,127.142235 160.619598,125.302734 161.713013,125.126472   C165.646271,124.492386 165.065262,122.301910 164.047180,119.364952   C169.324677,122.681953 169.707245,126.188858 164.850021,129.661087   C161.688721,131.920944 158.002533,133.447662 154.847580,135.714844   C152.866974,137.138153 151.434845,139.324661 149.285797,141.686172   C148.606339,141.378143 147.174515,140.729050 145.384766,140.033661   C144.705383,138.885239 144.383896,137.783096 144.033325,136.334686  z" />
<path fill="#7DC4E7" stroke="none" d=" M163.964874,117.653595   C161.021820,114.899940 158.046066,111.798431 155.040588,108.342941   C157.984634,111.094566 160.958405,114.200157 163.964874,117.653595  z" />
<path fill="#7DC4E7" stroke="none" d=" M141.001617,133.329849   C141.642273,133.450424 142.282120,133.903275 142.967316,134.676239   C142.567322,134.996841 142.121933,134.997345 141.342865,134.994354   C141.006378,134.547943 141.003586,134.105042 141.001617,133.329849  z" />
<path fill="#262B56" stroke="none" d=" M215.009460,247.257782   C215.180817,247.011429 215.348801,247.010056 215.768982,247.009277   C215.917511,247.334549 215.726349,247.595062 215.223572,247.892044   C214.999390,247.992676 215.006119,247.502747 215.009460,247.257782  z" />
</svg>